<svg viewBox="0 0 500 130" xmlns="http://www.w3.org/2000/svg">
  <g transform="translate(25, 15)">
    <rect x="0" y="0" width="50" height="100" fill="none" stroke="#4FD1C5" stroke-width="2.5" rx="4"/>
    <circle cx="12" cy="15" r="5" fill="none" stroke="#4FD1C5" stroke-width="2.5"/>
    <circle cx="25" cy="50" r="5.5" fill="#4FD1C5"/>
    <circle cx="12" cy="85" r="5" fill="none" stroke="#4FD1C5" stroke-width="2.5"/>
  </g>

  <g transform="translate(105, 15)">
    <rect x="0" y="0" width="50" height="100" fill="none" stroke="#4FD1C5" stroke-width="2.5" rx="4"/>
    <circle cx="38" cy="15" r="5" fill="none" stroke="#4FD1C5" stroke-width="2.5"/>
    <circle cx="25" cy="50" r="12" fill="none" stroke="#4FD1C5" stroke-width="2.5"/>
    <circle cx="20" cy="75" r="5.5" fill="#4FD1C5"/>
  </g>

  <g transform="translate(185, 15)">
    <rect x="0" y="0" width="50" height="100" fill="none" stroke="#4FD1C5" stroke-width="2.5" rx="4"/>
    <circle cx="25" cy="50" r="5.5" fill="#4FD1C5"/>
    <circle cx="15" cy="65" r="5" fill="none" stroke="#4FD1C5" stroke-width="2.5"/>
    <circle cx="38" cy="85" r="5" fill="none" stroke="#4FD1C5" stroke-width="2.5"/>
  </g>

  <g transform="translate(265, 15)">
    <rect x="0" y="0" width="50" height="100" fill="none" stroke="#4FD1C5" stroke-width="2.5" rx="4"/>
    <circle cx="25" cy="50" r="12" fill="none" stroke="#4FD1C5" stroke-width="2.5"/>
    <circle cx="15" cy="65" r="5.5" fill="#4FD1C5"/>
    <circle cx="12" cy="85" r="5" fill="none" stroke="#4FD1C5" stroke-width="2.5"/>
  </g>

  <g transform="translate(345, 15)">
    <rect x="0" y="0" width="50" height="100" fill="none" stroke="#4FD1C5" stroke-width="2.5" rx="4"/>
    <circle cx="12" cy="15" r="5" fill="none" stroke="#4FD1C5" stroke-width="2.5"/>
    <circle cx="25" cy="50" r="5.5" fill="#4FD1C5"/>
    <circle cx="12" cy="85" r="5" fill="none" stroke="#4FD1C5" stroke-width="2.5"/>
  </g>

  <g transform="translate(425, 15)">
    <rect x="0" y="0" width="50" height="100" fill="none" stroke="#f6ad55" stroke-width="2.5" stroke-dasharray="6,4" rx="4"/>
    <text x="25" y="60" font-family="sans-serif" font-size="30" font-weight="bold" fill="#f6ad55" text-anchor="middle">?</text>
  </g>
</svg>
