<svg viewBox="0 0 400 300" xmlns="http://www.w3.org/2000/svg">
    <rect width="400" height="300" fill="transparent"/>
    <line x1="20" y1="120" x2="80" y2="120" stroke="#444" stroke-width="0.5"/><line x1="20" y1="120" x2="20" y2="180" stroke="#444" stroke-width="0.5"/><line x1="20" y1="140" x2="80" y2="140" stroke="#444" stroke-width="0.5"/><line x1="40" y1="120" x2="40" y2="180" stroke="#444" stroke-width="0.5"/><line x1="20" y1="160" x2="80" y2="160" stroke="#444" stroke-width="0.5"/><line x1="60" y1="120" x2="60" y2="180" stroke="#444" stroke-width="0.5"/><line x1="20" y1="180" x2="80" y2="180" stroke="#444" stroke-width="0.5"/><line x1="80" y1="120" x2="80" y2="180" stroke="#444" stroke-width="0.5"/><rect x="22" y="122" width="16" height="16" fill="#4FD1C5"/><circle cx="30.0" cy="130.0" r="6.0" fill="none" stroke="#4FD1C5" stroke-width="2"/><text x="90" y="155" fill="#4FD1C5" font-size="20">➜</text><line x1="110" y1="120" x2="170" y2="120" stroke="#444" stroke-width="0.5"/><line x1="110" y1="120" x2="110" y2="180" stroke="#444" stroke-width="0.5"/><line x1="110" y1="140" x2="170" y2="140" stroke="#444" stroke-width="0.5"/><line x1="130" y1="120" x2="130" y2="180" stroke="#444" stroke-width="0.5"/><line x1="110" y1="160" x2="170" y2="160" stroke="#444" stroke-width="0.5"/><line x1="150" y1="120" x2="150" y2="180" stroke="#444" stroke-width="0.5"/><line x1="110" y1="180" x2="170" y2="180" stroke="#444" stroke-width="0.5"/><line x1="170" y1="120" x2="170" y2="180" stroke="#444" stroke-width="0.5"/><rect x="132" y="122" width="16" height="16" fill="#4FD1C5"/><circle cx="120.0" cy="150.0" r="6.0" fill="none" stroke="#4FD1C5" stroke-width="2"/><text x="180" y="155" fill="#4FD1C5" font-size="20">➜</text><line x1="200" y1="120" x2="260" y2="120" stroke="#444" stroke-width="0.5"/><line x1="200" y1="120" x2="200" y2="180" stroke="#444" stroke-width="0.5"/><line x1="200" y1="140" x2="260" y2="140" stroke="#444" stroke-width="0.5"/><line x1="220" y1="120" x2="220" y2="180" stroke="#444" stroke-width="0.5"/><line x1="200" y1="160" x2="260" y2="160" stroke="#444" stroke-width="0.5"/><line x1="240" y1="120" x2="240" y2="180" stroke="#444" stroke-width="0.5"/><line x1="200" y1="180" x2="260" y2="180" stroke="#444" stroke-width="0.5"/><line x1="260" y1="120" x2="260" y2="180" stroke="#444" stroke-width="0.5"/><rect x="242" y="122" width="16" height="16" fill="#4FD1C5"/><circle cx="210.0" cy="170.0" r="6.0" fill="none" stroke="#4FD1C5" stroke-width="2"/><text x="270" y="155" fill="#4FD1C5" font-size="20">➜</text><line x1="290" y1="120" x2="350" y2="120" stroke="#444" stroke-width="0.5"/><line x1="290" y1="120" x2="290" y2="180" stroke="#444" stroke-width="0.5"/><line x1="290" y1="140" x2="350" y2="140" stroke="#444" stroke-width="0.5"/><line x1="310" y1="120" x2="310" y2="180" stroke="#444" stroke-width="0.5"/><line x1="290" y1="160" x2="350" y2="160" stroke="#444" stroke-width="0.5"/><line x1="330" y1="120" x2="330" y2="180" stroke="#444" stroke-width="0.5"/><line x1="290" y1="180" x2="350" y2="180" stroke="#444" stroke-width="0.5"/><line x1="350" y1="120" x2="350" y2="180" stroke="#444" stroke-width="0.5"/><rect x="332" y="142" width="16" height="16" fill="#4FD1C5"/><circle cx="320.0" cy="170.0" r="6.0" fill="none" stroke="#4FD1C5" stroke-width="2"/>
</svg>