<svg viewBox="0 0 90 90" xmlns="http://www.w3.org/2000/svg">
  <rect x="6" y="6" width="78" height="78" fill="none" stroke="#4FD1C5" stroke-width="2.5" rx="4"/>
  <rect x="32" y="32" width="26" height="26" fill="none" stroke="#4FD1C5" stroke-width="2.5" rx="2"/>
  <line x1="32" y1="6" x2="32" y2="32" stroke="#4FD1C5" stroke-width="2.5"/><line x1="58" y1="6" x2="58" y2="32" stroke="#4FD1C5" stroke-width="2.5"/><line x1="32" y1="58" x2="32" y2="84" stroke="#4FD1C5" stroke-width="2.5"/><line x1="58" y1="58" x2="58" y2="84" stroke="#4FD1C5" stroke-width="2.5"/><line x1="6" y1="32" x2="32" y2="32" stroke="#4FD1C5" stroke-width="2.5"/><line x1="58" y1="32" x2="84" y2="32" stroke="#4FD1C5" stroke-width="2.5"/><line x1="6" y1="58" x2="32" y2="58" stroke="#4FD1C5" stroke-width="2.5"/><line x1="58" y1="58" x2="84" y2="58" stroke="#4FD1C5" stroke-width="2.5"/>
  
  <g transform="translate(19, 19)" stroke="#4FD1C5" stroke-width="2.5" stroke-linecap="round"><line x1="0" y1="-6" x2="0" y2="6"/><line x1="-4.2" y1="-4.2" x2="4.2" y2="4.2"/><line x1="-6" y1="0" x2="6" y2="0"/><line x1="-4.2" y1="4.2" x2="4.2" y2="-4.2"/></g>
  <g transform="translate(71, 45)" stroke="#4FD1C5" stroke-width="2.5" stroke-linecap="round"><line x1="0" y1="-6" x2="0" y2="6"/><line x1="-4.2" y1="-4.2" x2="4.2" y2="4.2"/><line x1="-6" y1="0" x2="6" y2="0"/><line x1="-4.2" y1="4.2" x2="4.2" y2="-4.2"/></g>
  <g transform="translate(45, 71)" stroke="#4FD1C5" stroke-width="2.5" stroke-linecap="round"><line x1="0" y1="-6" x2="0" y2="6"/><line x1="-4.2" y1="-4.2" x2="4.2" y2="4.2"/><line x1="-6" y1="0" x2="6" y2="0"/><line x1="-4.2" y1="4.2" x2="4.2" y2="-4.2"/></g>
</svg>
