<svg width="400" height="150" viewBox="0 0 400 150" xmlns="http://www.w3.org/2000/svg">
  <defs>
    <linearGradient id="stick" x1="0%" y1="0%" x2="100%" y2="0%">
      <stop offset="0%" style="stop-color:#FFD700;stop-opacity:1" />
      <stop offset="85%" style="stop-color:#FFD700;stop-opacity:1" />
      <stop offset="100%" style="stop-color:#FF4500;stop-opacity:1" />
    </linearGradient>
  </defs>
  <rect width="100%" height="100%" fill="transparent"/>
<rect x="30" y="50" width="4" height="50" fill="url(#stick)" rx="2"/><line x1="50" y1="50" x2="65" y2="100" stroke="url(#stick)" stroke-width="4" stroke-linecap="round"/><line x1="65" y1="100" x2="80" y2="50" stroke="url(#stick)" stroke-width="4" stroke-linecap="round"/><rect x="90" y="73.0" width="30" height="4" fill="url(#stick)" rx="2"/>
<rect x="103.0" y="60.0" width="4" height="30" fill="url(#stick)" rx="2"/>
<line x1="130" y1="50" x2="145" y2="100" stroke="url(#stick)" stroke-width="4" stroke-linecap="round"/><line x1="145" y1="100" x2="160" y2="50" stroke="url(#stick)" stroke-width="4" stroke-linecap="round"/><rect x="170" y="69.0" width="30" height="4" fill="url(#stick)" rx="2"/>
<rect x="170" y="77.0" width="30" height="4" fill="url(#stick)" rx="2"/>
<line x1="210" y1="50" x2="225" y2="100" stroke="url(#stick)" stroke-width="4" stroke-linecap="round"/><line x1="225" y1="100" x2="240" y2="50" stroke="url(#stick)" stroke-width="4" stroke-linecap="round"/><rect x="260" y="50" width="4" height="50" fill="url(#stick)" rx="2"/></svg>