<svg width="400" height="150" viewBox="0 0 400 150" xmlns="http://www.w3.org/2000/svg">
  <defs>
    <linearGradient id="stick" x1="0%" y1="0%" x2="100%" y2="0%">
      <stop offset="0%" style="stop-color:#FFD700;stop-opacity:1" />
      <stop offset="85%" style="stop-color:#FFD700;stop-opacity:1" />
      <stop offset="100%" style="stop-color:#FF4500;stop-opacity:1" />
    </linearGradient>
  </defs>
  <rect width="100%" height="100%" fill="transparent"/>
<rect x="24" y="50" width="22" height="4" fill="url(#stick)" rx="2"/>
<rect x="46" y="54" width="4" height="19.0" fill="url(#stick)" rx="2"/>
<rect x="46" y="77.0" width="4" height="19.0" fill="url(#stick)" rx="2"/>
<rect x="24" y="96" width="22" height="4" fill="url(#stick)" rx="2"/>
<rect x="20" y="54" width="4" height="19.0" fill="url(#stick)" rx="2"/>
<rect x="24" y="73.0" width="22" height="4" fill="url(#stick)" rx="2"/>
<rect x="64" y="73.0" width="22" height="4" fill="url(#stick)" rx="2"/>
<rect x="104" y="50" width="22" height="4" fill="url(#stick)" rx="2"/>
<rect x="100" y="54" width="4" height="19.0" fill="url(#stick)" rx="2"/>
<rect x="104" y="73.0" width="22" height="4" fill="url(#stick)" rx="2"/>
<rect x="126" y="77.0" width="4" height="19.0" fill="url(#stick)" rx="2"/>
<rect x="104" y="96" width="22" height="4" fill="url(#stick)" rx="2"/>
<rect x="140" y="69.0" width="30" height="4" fill="url(#stick)" rx="2"/>
<rect x="140" y="77.0" width="30" height="4" fill="url(#stick)" rx="2"/>
<rect x="184" y="50" width="22" height="4" fill="url(#stick)" rx="2"/>
<rect x="180" y="54" width="4" height="19.0" fill="url(#stick)" rx="2"/>
<rect x="180" y="77.0" width="4" height="19.0" fill="url(#stick)" rx="2"/>
<rect x="184" y="96" width="22" height="4" fill="url(#stick)" rx="2"/>
<rect x="206" y="77.0" width="4" height="19.0" fill="url(#stick)" rx="2"/>
<rect x="184" y="73.0" width="22" height="4" fill="url(#stick)" rx="2"/>
</svg>