<svg viewBox="0 0 650 180" xmlns="http://www.w3.org/2000/svg">
  <!-- Opción A -->
  <g transform="translate(10, 10)">
    <rect x="0" y="0" width="110" height="90" fill="none" stroke="#1E88E5" stroke-width="3" rx="6"/>
    <circle cx="100" cy="12" r="4" fill="#1E88E5"/>
    <rect x="25" y="15" width="50" height="50" fill="none" stroke="#1E88E5" stroke-width="3" rx="3"/>
    <circle cx="50" cy="40" r="18" fill="none" stroke="#1E88E5" stroke-width="3"/>
    <line x1="50" y1="40" x2="15" y2="75" stroke="#1E88E5" stroke-width="3" stroke-linecap="round"/>
    <polygon points="15,75 10,68 20,70" fill="#1E88E5"/>
    <text x="55" y="135" font-family="Arial, sans-serif" font-size="24" font-weight="bold" text-anchor="middle" fill="#1E88E5">A)</text>
  </g>

  <!-- Opción B -->
  <g transform="translate(140, 10)">
    <rect x="0" y="0" width="110" height="90" fill="none" stroke="#1E88E5" stroke-width="3" rx="6"/>
    <circle cx="10" cy="12" r="4" fill="#1E88E5"/>
    <circle cx="55" cy="45" r="28" fill="none" stroke="#1E88E5" stroke-width="3"/>
    <circle cx="55" cy="45" r="16" fill="none" stroke="#1E88E5" stroke-width="3"/>
    <line x1="100" y1="5" x2="55" y2="45" stroke="#1E88E5" stroke-width="3" stroke-linecap="round"/>
    <polygon points="55,45 63,42 60,53" fill="#1E88E5"/>
    <text x="55" y="135" font-family="Arial, sans-serif" font-size="24" font-weight="bold" text-anchor="middle" fill="#1E88E5">B)</text>
  </g>

  <!-- Opción C -->
  <g transform="translate(270, 10)">
    <rect x="0" y="0" width="110" height="90" fill="none" stroke="#1E88E5" stroke-width="3" rx="6"/>
    <circle cx="100" cy="78" r="4" fill="#1E88E5"/>
    <circle cx="55" cy="45" r="28" fill="none" stroke="#1E88E5" stroke-width="3"/>
    <rect x="40" y="30" width="30" height="30" fill="none" stroke="#1E88E5" stroke-width="3"/>
    <line x1="55" y1="45" x2="95" y2="85" stroke="#1E88E5" stroke-width="3" stroke-linecap="round"/>
    <polygon points="95,85 100,78 92,82" fill="#1E88E5"/>
    <text x="55" y="135" font-family="Arial, sans-serif" font-size="24" font-weight="bold" text-anchor="middle" fill="#1E88E5">C)</text>
  </g>

  <!-- Opción D -->
  <g transform="translate(400, 10)">
    <rect x="0" y="0" width="110" height="90" fill="none" stroke="#1E88E5" stroke-width="3" rx="6"/>
    <circle cx="10" cy="12" r="4" fill="#1E88E5"/>
    <rect x="25" y="15" width="50" height="50" fill="none" stroke="#1E88E5" stroke-width="3" rx="3"/>
    <circle cx="50" cy="40" r="18" fill="none" stroke="#1E88E5" stroke-width="3"/>
    <line x1="20" y1="80" x2="85" y2="10" stroke="#1E88E5" stroke-width="3" stroke-linecap="round"/>
    <polygon points="85,10 88,18 80,14" fill="#1E88E5"/>
    <text x="55" y="135" font-family="Arial, sans-serif" font-size="24" font-weight="bold" text-anchor="middle" fill="#1E88E5">D)</text>
  </g>

  <!-- Opción E -->
  <g transform="translate(530, 10)">
    <rect x="0" y="0" width="110" height="90" fill="none" stroke="#1E88E5" stroke-width="3" rx="6"/>
    <circle cx="100" cy="78" r="4" fill="#1E88E5"/>
    <rect x="25" y="15" width="50" height="50" fill="none" stroke="#1E88E5" stroke-width="3" rx="3"/>
    <circle cx="50" cy="40" r="18" fill="none" stroke="#1E88E5" stroke-width="3"/>
    <line x1="90" y1="8" x2="20" y2="70" stroke="#1E88E5" stroke-width="3" stroke-linecap="round"/>
    <polygon points="20,70 15,63 25,68" fill="#1E88E5"/>
    <text x="55" y="135" font-family="Arial, sans-serif" font-size="24" font-weight="bold" text-anchor="middle" fill="#1E88E5">E)</text>
  </g>
</svg>
