<svg viewBox="0 0 500 130" xmlns="http://www.w3.org/2000/svg">
  <defs>
    <g id="grid2x2">
      <rect x="0" y="0" width="80" height="80" fill="none" stroke="#4FD1C5" stroke-width="2.5" rx="4"/>
      <line x1="40" y1="0" x2="40" y2="80" stroke="#4FD1C5" stroke-width="2.5"/>
      <line x1="0" y1="40" x2="80" y2="40" stroke="#4FD1C5" stroke-width="2.5"/>
    </g>
  </defs>

  <g transform="translate(10, 25)">
    <use href="#grid2x2"/>
    <circle cx="10" cy="10" r="4" fill="none" stroke="#4FD1C5" stroke-width="2"/> <circle cx="60" cy="20" r="7" fill="#4FD1C5"/> <polygon points="20,50 30,70 10,70" fill="none" stroke="#4FD1C5" stroke-width="2.5"/> <rect x="52" y="52" width="16" height="16" fill="none" stroke="#4FD1C5" stroke-width="2.5"/> </g>

  <g transform="translate(110, 25)">
    <use href="#grid2x2"/>
    <rect x="12" y="12" width="16" height="16" fill="none" stroke="#4FD1C5" stroke-width="2.5"/> <circle cx="70" cy="30" r="4" fill="none" stroke="#4FD1C5" stroke-width="2"/> <circle cx="20" cy="60" r="7" fill="#4FD1C5"/> <polygon points="60,50 70,70 50,70" fill="none" stroke="#4FD1C5" stroke-width="2.5"/> </g>

  <g transform="translate(210, 25)">
    <use href="#grid2x2"/>
    <polygon points="20,10 30,30 10,30" fill="none" stroke="#4FD1C5" stroke-width="2.5"/> <circle cx="60" cy="20" r="7" fill="#4FD1C5"/> <circle cx="30" cy="70" r="4" fill="none" stroke="#4FD1C5" stroke-width="2"/> <rect x="52" y="52" width="16" height="16" fill="none" stroke="#4FD1C5" stroke-width="2.5"/> </g>

  <g transform="translate(310, 25)">
    <use href="#grid2x2"/>
    <rect x="12" y="12" width="16" height="16" fill="none" stroke="#4FD1C5" stroke-width="2.5"/> <circle cx="10" cy="10" r="4" fill="none" stroke="#4FD1C5" stroke-width="2"/> <polygon points="60,10 70,30 50,30" fill="none" stroke="#4FD1C5" stroke-width="2.5"/> <circle cx="20" cy="60" r="7" fill="#4FD1C5"/> </g>

  <g transform="translate(410, 25)">
    <rect x="0" y="0" width="80" height="80" fill="none" stroke="#f6ad55" stroke-width="2.5" stroke-dasharray="6,4" rx="4"/>
    <text x="40" y="50" font-family="sans-serif" font-size="36" font-weight="bold" fill="#f6ad55" text-anchor="middle">?</text>
  </g>
</svg>
